<svg width="18" height="19" viewBox="0 0 18 19" fill="none" xmlns="http://www.w3.org/2000/svg">
    <path
        d="M12.0208 17C12.021 17.5046 11.8291 17.9906 11.4836 18.3605C11.1382 18.7305 10.6647 18.9572 10.158 18.995L10.007 19H7.99317C7.48511 19.0002 6.99576 18.8096 6.62322 18.4665C6.25068 18.1234 6.02249 17.6532 5.98439 17.15L5.97935 17H12.0208ZM9.00008 9.54067e-10C10.8276 -2.9945e-05 12.5837 0.704894 13.8979 1.96607C15.2121 3.22726 15.9818 4.94609 16.0444 6.76L16.0484 7V10.764L17.883 14.408C17.9631 14.567 18.0032 14.7429 17.9998 14.9206C17.9964 15.0984 17.9498 15.2727 17.8637 15.4286C17.7777 15.5845 17.655 15.7174 17.5059 15.8158C17.3569 15.9143 17.186 15.9754 17.008 15.994L16.8922 16H1.10793C0.928863 16.0001 0.752455 15.957 0.593821 15.8745C0.435186 15.792 0.299056 15.6725 0.197094 15.5264C0.0951331 15.3802 0.0303809 15.2116 0.00838691 15.0351C-0.0136071 14.8586 0.00781278 14.6795 0.070811 14.513L0.117129 14.408L1.95172 10.764V7C1.95172 5.14348 2.69431 3.36301 4.01613 2.05025C5.33796 0.737498 7.13074 9.54069e-10 9.00008 9.54067e-10Z"
        fill="white" />
</svg>
    