<svg width="24" height="24" viewBox="0 0 24 24" fill="none" xmlns="http://www.w3.org/2000/svg">
<path id="Vector" d="M12 0C9.62663 0 7.30655 0.703788 5.33316 2.02236C3.35977 3.34094 1.8217 5.21508 0.913451 7.4078C0.00519941 9.60051 -0.232441 12.0133 0.230582 14.3411C0.693605 16.6689 1.83649 18.807 3.51472 20.4853C5.19295 22.1635 7.33115 23.3064 9.65892 23.7694C11.9867 24.2324 14.3995 23.9948 16.5922 23.0865C18.7849 22.1783 20.6591 20.6402 21.9776 18.6668C23.2962 16.6934 24 14.3734 24 12C23.996 8.81862 22.7305 5.76868 20.4809 3.5191C18.2313 1.26953 15.1814 0.00396929 12 0ZM16.6154 12.9231H12.9231V16.6154C12.9231 16.8602 12.8258 17.095 12.6527 17.2681C12.4796 17.4412 12.2448 17.5385 12 17.5385C11.7552 17.5385 11.5204 17.4412 11.3473 17.2681C11.1742 17.095 11.0769 16.8602 11.0769 16.6154V12.9231H7.38462C7.1398 12.9231 6.90502 12.8258 6.73191 12.6527C6.55879 12.4796 6.46154 12.2448 6.46154 12C6.46154 11.7552 6.55879 11.5204 6.73191 11.3473C6.90502 11.1742 7.1398 11.0769 7.38462 11.0769H11.0769V7.38461C11.0769 7.1398 11.1742 6.90501 11.3473 6.7319C11.5204 6.55879 11.7552 6.46154 12 6.46154C12.2448 6.46154 12.4796 6.55879 12.6527 6.7319C12.8258 6.90501 12.9231 7.1398 12.9231 7.38461V11.0769H16.6154C16.8602 11.0769 17.095 11.1742 17.2681 11.3473C17.4412 11.5204 17.5385 11.7552 17.5385 12C17.5385 12.2448 17.4412 12.4796 17.2681 12.6527C17.095 12.8258 16.8602 12.9231 16.6154 12.9231Z" fill="black"/>
<defs>
<linearGradient id="paint0_linear_62_7643" x1="0" y1="12" x2="26.88" y2="12" gradientUnits="userSpaceOnUse">
<stop stop-color="#1FBBC2"/>
<stop offset="1" stop-color="#67D1AB"/>
</linearGradient>
</defs>
</svg>
