<svg width="24" height="24" viewBox="0 0 24 24" fill="none" xmlns="http://www.w3.org/2000/svg">
    <path d="M19.6052 12.0002C19.6052 12.4402 19.2452 12.8002 18.8052 12.8002H7.12515L10.7452 16.4402C11.0652 16.7602 11.0652 17.2602 10.7452 17.5802C10.5852 17.7402 10.3852 17.8202 10.1852 17.8202C9.98515 17.8202 9.76515 17.7402 9.62515 17.5802L4.64515 12.5802C4.32515 12.2602 4.32515 11.7602 4.64515 11.4602L9.62515 6.46021C9.94515 6.14021 10.4451 6.14021 10.7651 6.46021C11.0851 6.78021 11.0851 7.28021 10.7651 7.60021L7.12515 11.2002H18.8052C19.2452 11.2002 19.6052 11.5602 19.6052 12.0002Z" fill="black"/>
    </svg>
    