<svg width="24" height="25" viewBox="0 0 24 25" fill="none" xmlns="http://www.w3.org/2000/svg">
<path id="Vector" d="M22.1154 3.84615H17.3077V2.88462C17.3077 2.11957 17.0038 1.38585 16.4628 0.844884C15.9218 0.303914 15.1881 0 14.4231 0H8.65385C7.8888 0 7.15509 0.303914 6.61411 0.844884C6.07314 1.38585 5.76923 2.11957 5.76923 2.88462V3.84615H0.961538C0.706523 3.84615 0.461952 3.94746 0.281628 4.12778C0.101305 4.30811 0 4.55268 0 4.80769C0 5.06271 0.101305 5.30728 0.281628 5.4876C0.461952 5.66793 0.706523 5.76923 0.961538 5.76923H1.92308V23.0769C1.92308 23.587 2.12569 24.0761 2.48633 24.4367C2.84698 24.7974 3.33612 25 3.84615 25H19.2308C19.7408 25 20.2299 24.7974 20.5906 24.4367C20.9512 24.0761 21.1538 23.587 21.1538 23.0769V5.76923H22.1154C22.3704 5.76923 22.615 5.66793 22.7953 5.4876C22.9756 5.30728 23.0769 5.06271 23.0769 4.80769C23.0769 4.55268 22.9756 4.30811 22.7953 4.12778C22.615 3.94746 22.3704 3.84615 22.1154 3.84615ZM9.61539 18.2692C9.61539 18.5242 9.51408 18.7688 9.33376 18.9491C9.15343 19.1295 8.90886 19.2308 8.65385 19.2308C8.39883 19.2308 8.15426 19.1295 7.97394 18.9491C7.79361 18.7688 7.69231 18.5242 7.69231 18.2692V10.5769C7.69231 10.3219 7.79361 10.0773 7.97394 9.89701C8.15426 9.71669 8.39883 9.61538 8.65385 9.61538C8.90886 9.61538 9.15343 9.71669 9.33376 9.89701C9.51408 10.0773 9.61539 10.3219 9.61539 10.5769V18.2692ZM15.3846 18.2692C15.3846 18.5242 15.2833 18.7688 15.103 18.9491C14.9227 19.1295 14.6781 19.2308 14.4231 19.2308C14.1681 19.2308 13.9235 19.1295 13.7432 18.9491C13.5628 18.7688 13.4615 18.5242 13.4615 18.2692V10.5769C13.4615 10.3219 13.5628 10.0773 13.7432 9.89701C13.9235 9.71669 14.1681 9.61538 14.4231 9.61538C14.6781 9.61538 14.9227 9.71669 15.103 9.89701C15.2833 10.0773 15.3846 10.3219 15.3846 10.5769V18.2692ZM15.3846 3.84615H7.69231V2.88462C7.69231 2.6296 7.79361 2.38503 7.97394 2.20471C8.15426 2.02438 8.39883 1.92308 8.65385 1.92308H14.4231C14.6781 1.92308 14.9227 2.02438 15.103 2.20471C15.2833 2.38503 15.3846 2.6296 15.3846 2.88462V3.84615Z" fill="#EA4335"/>
</svg>
