<svg width="24" height="24" viewBox="0 0 24 24" fill="none" xmlns="http://www.w3.org/2000/svg">
<path id="Vector" d="M23.4363 5.92508L18.0749 0.562489C17.8966 0.38416 17.685 0.2427 17.452 0.146188C17.219 0.0496749 16.9693 0 16.7172 0C16.465 0 16.2153 0.0496749 15.9823 0.146188C15.7494 0.2427 15.5377 0.38416 15.3594 0.562489L0.562788 15.3603C0.38373 15.538 0.241769 15.7494 0.145155 15.9824C0.0485416 16.2154 -0.000796096 16.4652 9.71357e-06 16.7175V22.0801C9.71357e-06 22.5893 0.202287 23.0776 0.562343 23.4377C0.922399 23.7977 1.41074 24 1.91994 24H7.28253C7.53475 24.0008 7.78462 23.9515 8.0176 23.8548C8.25059 23.7582 8.46204 23.6163 8.63968 23.4372L23.4363 8.64058C23.6146 8.46229 23.7561 8.25062 23.8526 8.01766C23.9491 7.78469 23.9988 7.535 23.9988 7.28283C23.9988 7.03067 23.9491 6.78097 23.8526 6.54801C23.7561 6.31504 23.6146 6.10337 23.4363 5.92508ZM19.1993 10.1621L13.8367 4.80073L16.7166 1.92084L22.0792 7.28223L19.1993 10.1621Z" fill="black"/>
<defs>
<linearGradient id="paint0_linear_62_7646" x1="0" y1="12" x2="26.8787" y2="12" gradientUnits="userSpaceOnUse">
<stop stop-color="#1FBBC2"/>
<stop offset="1" stop-color="#67D1AB"/>
</linearGradient>
</defs>
</svg>
