<svg width="24" height="18" viewBox="0 0 24 18" fill="none" xmlns="http://www.w3.org/2000/svg">
<path d="M22.5 17.9998H1.50001C0.671548 17.9998 0 17.3282 0 16.4998C0 15.6714 0.671548 14.9998 1.50001 14.9998H22.5C23.3285 14.9998 24.0001 15.6714 24.0001 16.4998C24 17.3282 23.3285 17.9998 22.5 17.9998Z" fill="black"/>
<path d="M22.5 10.4997H1.50001C0.671548 10.4997 0 9.82818 0 8.99977C0 8.17136 0.671548 7.49976 1.50001 7.49976H22.5C23.3285 7.49976 24.0001 8.1713 24.0001 8.99977C24.0001 9.82823 23.3285 10.4997 22.5 10.4997Z" fill="black"/>
<path d="M22.5 2.99977H1.50001C0.671548 2.99977 0 2.32823 0 1.49977C0 0.671304 0.671548 -0.000244141 1.50001 -0.000244141H22.5C23.3285 -0.000244141 24.0001 0.671304 24.0001 1.49977C24.0001 2.32823 23.3285 2.99977 22.5 2.99977Z" fill="black"/>
</svg>
