<svg width="28" height="28" viewBox="0 0 28 28" fill="none" xmlns="http://www.w3.org/2000/svg">
<path d="M21.0817 9.92873L11.0951 4.9354C4.38673 1.5754 1.6334 4.32873 4.9934 11.0371L6.0084 13.0671C6.30006 13.6621 6.30006 14.3504 6.0084 14.9454L4.9934 16.9637C1.6334 23.6721 4.37506 26.4254 11.0951 23.0654L21.0817 18.0721C25.5617 15.8321 25.5617 12.1687 21.0817 9.92873ZM17.3134 14.8754H11.0134C10.5351 14.8754 10.1384 14.4787 10.1384 14.0004C10.1384 13.5221 10.5351 13.1254 11.0134 13.1254H17.3134C17.7917 13.1254 18.1884 13.5221 18.1884 14.0004C18.1884 14.4787 17.7917 14.8754 17.3134 14.8754Z" fill="#1E1E1F"/>
</svg>
