<svg width="60" height="60" viewBox="0 0 60 60" fill="none" xmlns="http://www.w3.org/2000/svg">
    <path d="M30 57.5C45.1878 57.5 57.5 45.1878 57.5 30C57.5 14.8122 45.1878 2.5 30 2.5C14.8122 2.5 2.5 14.8122 2.5 30C2.5 45.1878 14.8122 57.5 30 57.5Z" fill="#1E1E1F" stroke="white" stroke-width="5"/>
    <path fill-rule="evenodd" clip-rule="evenodd" d="M37.728 39.182H22.273C21.0183 39.1804 20.0017 38.1637 20 36.909V26C20.0017 24.7453 21.0183 23.7287 22.273 23.727H24.027C24.4831 23.7277 24.9093 23.4998 25.162 23.12L25.9 22.012C26.3214 21.3791 27.0316 20.9992 27.792 21H32.209C32.9691 20.999 33.6792 21.379 34.1 22.012L34.839 23.12C35.0915 23.5 35.5178 23.728 35.974 23.727H37.728C38.9825 23.7287 39.9989 24.7455 40 26V36.909C39.9989 38.1635 38.9825 39.1803 37.728 39.182ZM22.273 24.636C21.5199 24.6366 20.9096 25.2469 20.909 26V36.909C20.9096 37.6621 21.5199 38.2725 22.273 38.273H37.728C38.4807 38.2719 39.0904 37.6617 39.091 36.909V26C39.0904 25.2473 38.4807 24.6371 37.728 24.636H35.974C35.2139 24.6369 34.5037 24.2574 34.082 23.625L33.344 22.516C33.091 22.1365 32.6651 21.9087 32.209 21.909H27.792C27.3359 21.9083 26.9097 22.1363 26.657 22.516L25.918 23.625C25.4968 24.2575 24.7869 24.6371 24.027 24.636H22.273ZM30 36.455C26.9873 36.455 24.545 34.0127 24.545 31C24.545 27.9873 26.9873 25.545 30 25.545C33.0127 25.545 35.455 27.9873 35.455 31C35.4517 34.0113 33.0113 36.4517 30 36.455ZM30 26.455C27.49 26.4556 25.4556 28.4907 25.456 31.0007C25.4564 33.5107 27.4913 35.5452 30.0013 35.545C32.5113 35.5448 34.546 33.51 34.546 31C34.5432 28.4906 32.5094 26.4572 30 26.455Z" fill="white"/>
    <path d="M37.728 39.182V39.682H37.7287L37.728 39.182ZM22.273 39.182L22.2723 39.682H22.273V39.182ZM20 36.909H19.5L19.5 36.9097L20 36.909ZM20 26L19.5 25.9993V26H20ZM22.273 23.727V23.227L22.2723 23.227L22.273 23.727ZM24.027 23.727L24.0277 23.227H24.027V23.727ZM25.162 23.12L24.7459 22.8428L24.7457 22.843L25.162 23.12ZM25.9 22.012L26.3161 22.2892L26.3162 22.2891L25.9 22.012ZM27.792 21L27.7915 21.5H27.792V21ZM32.209 21V21.5L32.2097 21.5L32.209 21ZM34.1 22.012L33.6836 22.2888L33.684 22.2894L34.1 22.012ZM34.839 23.12L35.2555 22.8433L35.255 22.8426L34.839 23.12ZM35.974 23.727V23.227L35.9729 23.227L35.974 23.727ZM37.728 23.727L37.7287 23.227H37.728V23.727ZM40 26H40.5V25.9996L40 26ZM40 36.909L40.5 36.9094V36.909H40ZM22.273 24.636V24.136L22.2726 24.136L22.273 24.636ZM20.909 26L20.409 25.9996V26H20.909ZM20.909 36.909H20.409L20.409 36.9094L20.909 36.909ZM22.273 38.273L22.2726 38.773H22.273V38.273ZM37.728 38.273V38.773H37.7287L37.728 38.273ZM39.091 36.909L39.591 36.9094V36.909H39.091ZM39.091 26H39.591V25.9996L39.091 26ZM37.728 24.636L37.7287 24.136H37.728V24.636ZM35.974 24.636V24.136L35.9734 24.136L35.974 24.636ZM34.082 23.625L33.6657 23.902L33.666 23.9024L34.082 23.625ZM33.344 22.516L33.7603 22.239L33.76 22.2387L33.344 22.516ZM32.209 21.909V22.409L32.2093 22.409L32.209 21.909ZM27.792 21.909L27.7913 22.409H27.792V21.909ZM26.657 22.516L27.0731 22.7933L27.0733 22.793L26.657 22.516ZM25.918 23.625L25.5019 23.3477L25.5018 23.3479L25.918 23.625ZM24.027 24.636L24.0277 24.136H24.027V24.636ZM30 36.455V36.955H30.0005L30 36.455ZM35.455 31L35.955 31.0006V31H35.455ZM30 26.455L30.0004 25.955H29.9999L30 26.455ZM25.456 31.0007L25.956 31.0006L25.456 31.0007ZM34.546 31H35.046L35.046 30.9995L34.546 31ZM37.728 38.682H22.273V39.682H37.728V38.682ZM22.2737 38.682C21.2946 38.6807 20.5013 37.8874 20.5 36.9083L19.5 36.9097C19.502 38.4399 20.7421 39.68 22.2723 39.682L22.2737 38.682ZM20.5 36.909V26H19.5V36.909H20.5ZM20.5 26.0007C20.5013 25.0216 21.2946 24.2283 22.2737 24.227L22.2723 23.227C20.7421 23.229 19.502 24.4691 19.5 25.9993L20.5 26.0007ZM22.273 24.227H24.027V23.227H22.273V24.227ZM24.0263 24.227C24.65 24.2279 25.2327 23.9163 25.5783 23.397L24.7457 22.843C24.5859 23.0832 24.3163 23.2274 24.0277 23.227L24.0263 24.227ZM25.5781 23.3972L26.3161 22.2892L25.4839 21.7348L24.7459 22.8428L25.5781 23.3972ZM26.3162 22.2891C26.6448 21.7956 27.1986 21.4994 27.7915 21.5L27.7925 20.5C26.8647 20.499 25.998 20.9626 25.4838 21.7349L26.3162 22.2891ZM27.792 21.5H32.209V20.5H27.792V21.5ZM32.2097 21.5C32.8022 21.4992 33.3556 21.7954 33.6836 22.2888L34.5164 21.7352C34.0028 20.9626 33.1361 20.4987 32.2083 20.5L32.2097 21.5ZM33.684 22.2894L34.423 23.3974L35.255 22.8426L34.516 21.7346L33.684 22.2894ZM34.4225 23.3967C34.7679 23.9165 35.351 24.2284 35.9751 24.227L35.9729 23.227C35.6845 23.2276 35.4151 23.0835 35.2555 22.8433L34.4225 23.3967ZM35.974 24.227H37.728V23.227H35.974V24.227ZM37.7273 24.227C38.7061 24.2283 39.4991 25.0217 39.5 26.0004L40.5 25.9996C40.4987 24.4694 39.2589 23.229 37.7287 23.227L37.7273 24.227ZM39.5 26V36.909H40.5V26H39.5ZM39.5 36.9086C39.4991 37.8873 38.7061 38.6807 37.7273 38.682L37.7287 39.682C39.2589 39.68 40.4987 38.4397 40.5 36.9094L39.5 36.9086ZM22.2726 24.136C21.2437 24.1368 20.4098 24.9707 20.409 25.9996L21.409 26.0004C21.4093 25.5231 21.7961 25.1364 22.2734 25.136L22.2726 24.136ZM20.409 26V36.909H21.409V26H20.409ZM20.409 36.9094C20.4098 37.9383 21.2437 38.7722 22.2726 38.773L22.2734 37.773C21.7961 37.7727 21.4093 37.3859 21.409 36.9086L20.409 36.9094ZM22.273 38.773H37.728V37.773H22.273V38.773ZM37.7287 38.773C38.7571 38.7715 39.5902 37.9378 39.591 36.9094L38.591 36.9086C38.5907 37.3856 38.2043 37.7723 37.7273 37.773L37.7287 38.773ZM39.591 36.909V26H38.591V36.909H39.591ZM39.591 25.9996C39.5902 24.9712 38.7571 24.1375 37.7287 24.136L37.7273 25.136C38.2043 25.1367 38.5907 25.5234 38.591 26.0004L39.591 25.9996ZM37.728 24.136H35.974V25.136H37.728V24.136ZM35.9734 24.136C35.3807 24.1367 34.8269 23.8408 34.498 23.3476L33.666 23.9024C34.1806 24.674 35.0471 25.1371 35.9746 25.136L35.9734 24.136ZM34.4983 23.348L33.7603 22.239L32.9277 22.793L33.6657 23.902L34.4983 23.348ZM33.76 22.2387C33.4143 21.72 32.832 21.4086 32.2087 21.409L32.2093 22.409C32.4981 22.4088 32.7678 22.5531 32.928 22.7933L33.76 22.2387ZM32.209 21.409H27.792V22.409H32.209V21.409ZM27.7927 21.409C27.169 21.4081 26.5863 21.7197 26.2407 22.239L27.0733 22.793C27.2331 22.5528 27.5027 22.4086 27.7913 22.409L27.7927 21.409ZM26.2409 22.2387L25.5019 23.3477L26.3341 23.9023L27.0731 22.7933L26.2409 22.2387ZM25.5018 23.3479C25.1735 23.841 24.6201 24.1368 24.0277 24.136L24.0263 25.136C24.9537 25.1373 25.8202 24.6741 26.3342 23.9021L25.5018 23.3479ZM24.027 24.136H22.273V25.136H24.027V24.136ZM30 35.955C27.2634 35.955 25.045 33.7366 25.045 31H24.045C24.045 34.2889 26.7111 36.955 30 36.955V35.955ZM25.045 31C25.045 28.2634 27.2634 26.045 30 26.045V25.045C26.7111 25.045 24.045 27.7111 24.045 31H25.045ZM30 26.045C32.7366 26.045 34.955 28.2634 34.955 31H35.955C35.955 27.7111 33.2889 25.045 30 25.045V26.045ZM34.955 30.9995C34.952 33.7351 32.7351 35.952 29.9995 35.955L30.0005 36.955C33.2876 36.9514 35.9514 34.2876 35.955 31.0006L34.955 30.9995ZM29.9999 25.955C27.2138 25.9556 24.9556 28.2146 24.956 31.0007L25.956 31.0006C25.9557 28.7667 27.7662 26.9555 30.0001 26.955L29.9999 25.955ZM24.956 31.0007C24.9564 33.7869 27.2152 36.0452 30.0014 36.045L30.0013 35.045C27.7674 35.0452 25.9563 33.2345 25.956 31.0006L24.956 31.0007ZM30.0014 36.045C32.7875 36.0448 35.046 33.7861 35.046 31H34.046C34.046 33.2339 32.2352 35.0448 30.0013 35.045L30.0014 36.045ZM35.046 30.9995C35.0429 28.2143 32.7856 25.9574 30.0004 25.955L29.9996 26.955C32.2332 26.957 34.0435 28.7669 34.046 31.0006L35.046 30.9995Z" fill="white"/>
    </svg>
    