<svg width="28" height="28" viewBox="0 0 28 28" fill="none" xmlns="http://www.w3.org/2000/svg">
<path d="M21.0816 9.92873L11.0949 4.9354C4.38661 1.5754 1.63327 4.32873 4.99327 11.0371L6.00827 13.0671C6.29994 13.6621 6.29994 14.3504 6.00827 14.9454L4.99327 16.9637C1.63327 23.6721 4.37494 26.4254 11.0949 23.0654L21.0816 18.0721C25.5616 15.8321 25.5616 12.1687 21.0816 9.92873ZM17.3133 14.8754H11.0133C10.5349 14.8754 10.1383 14.4787 10.1383 14.0004C10.1383 13.5221 10.5349 13.1254 11.0133 13.1254H17.3133C17.7916 13.1254 18.1883 13.5221 18.1883 14.0004C18.1883 14.4787 17.7916 14.8754 17.3133 14.8754Z" fill="#1E1E1F"/>
</svg>
