<svg width="22" height="17" viewBox="0 0 22 17" fill="none" xmlns="http://www.w3.org/2000/svg">
    <path
        d="M21.4991 7.85973C21.4686 7.77884 20.7295 5.85487 19.0864 3.92679C16.897 1.35774 14.1317 0 11.088 0C8.04431 0 5.279 1.35774 3.08961 3.92679C1.44648 5.85487 0.703891 7.78191 0.67684 7.85973C0.637148 7.96449 0.616638 8.07786 0.616638 8.19251C0.616638 8.30716 0.637148 8.42053 0.67684 8.52529C0.707382 8.60618 1.44648 10.5291 3.08961 12.4572C5.279 15.0252 8.04431 16.383 11.088 16.383C14.1317 16.383 16.897 15.0252 19.0864 12.4572C20.7295 10.5291 21.4686 8.60618 21.4991 8.52529C21.5388 8.42053 21.5593 8.30716 21.5593 8.19251C21.5593 8.07786 21.5388 7.96449 21.4991 7.85973ZM11.088 12.2872C10.3976 12.2872 9.72279 12.047 9.14879 11.597C8.57479 11.1469 8.12741 10.5073 7.86323 9.75886C7.59904 9.01046 7.52992 8.18695 7.6646 7.39245C7.79928 6.59795 8.13171 5.86816 8.61986 5.29536C9.10801 4.72256 9.72995 4.33248 10.407 4.17444C11.0841 4.01641 11.7859 4.09752 12.4237 4.40751C13.0615 4.71751 13.6067 5.24247 13.9902 5.91602C14.3737 6.58956 14.5784 7.38143 14.5784 8.19149C14.5784 9.27775 14.2107 10.3195 13.5561 11.0876C12.9015 11.8557 12.0137 12.2872 11.088 12.2872Z"
        fill="#1E1E1F" />
</svg>
    