<svg width="19" height="19" viewBox="0 0 19 19" fill="none" xmlns="http://www.w3.org/2000/svg">
    <path
        d="M9.5 0C7.62108 0 5.78435 0.557165 4.22209 1.60104C2.65982 2.64491 1.44218 4.12861 0.723149 5.86451C0.0041162 7.6004 -0.184015 9.51054 0.182544 11.3534C0.549104 13.1962 1.45389 14.8889 2.78249 16.2175C4.11109 17.5461 5.80383 18.4509 7.64665 18.8175C9.48946 19.184 11.3996 18.9959 13.1355 18.2769C14.8714 17.5578 16.3551 16.3402 17.399 14.7779C18.4428 13.2156 19 11.3789 19 9.5C18.9973 6.98126 17.9956 4.56644 16.2146 2.78542C14.4336 1.0044 12.0187 0.00265983 9.5 0ZM9.13462 4.38461C9.35142 4.38461 9.56335 4.4489 9.74361 4.56935C9.92387 4.6898 10.0644 4.86099 10.1473 5.06129C10.2303 5.26158 10.252 5.48198 10.2097 5.69462C10.1674 5.90725 10.063 6.10257 9.90971 6.25587C9.75642 6.40917 9.5611 6.51356 9.34847 6.55586C9.13583 6.59816 8.91543 6.57645 8.71514 6.49348C8.51484 6.41052 8.34365 6.27002 8.2232 6.08976C8.10275 5.9095 8.03846 5.69757 8.03846 5.48077C8.03846 5.19005 8.15395 4.91124 8.35952 4.70567C8.56509 4.5001 8.8439 4.38461 9.13462 4.38461ZM10.2308 14.6154C9.84315 14.6154 9.4714 14.4614 9.19731 14.1873C8.92322 13.9132 8.76923 13.5415 8.76923 13.1538V9.5C8.57542 9.5 8.38955 9.42301 8.2525 9.28596C8.11546 9.14892 8.03846 8.96304 8.03846 8.76923C8.03846 8.57542 8.11546 8.38954 8.2525 8.2525C8.38955 8.11545 8.57542 8.03846 8.76923 8.03846C9.15686 8.03846 9.52861 8.19244 9.8027 8.46653C10.0768 8.74063 10.2308 9.11237 10.2308 9.5V13.1538C10.4246 13.1538 10.6105 13.2308 10.7475 13.3679C10.8846 13.5049 10.9615 13.6908 10.9615 13.8846C10.9615 14.0784 10.8846 14.2643 10.7475 14.4013C10.6105 14.5384 10.4246 14.6154 10.2308 14.6154Z"
        fill="white" />
</svg>