<svg width="25" height="18" viewBox="0 0 25 18" fill="none" xmlns="http://www.w3.org/2000/svg">
    <path d="M23.2994 18H2.35676C1.53056 18 0.86084 17.3284 0.86084 16.5C0.86084 15.6716 1.53056 15 2.35676 15H23.2995C24.1256 15 24.7954 15.6716 24.7954 16.5C24.7954 17.3284 24.1256 18 23.2994 18Z" fill="black"/>
    <path d="M23.2994 10.5H2.35676C1.53056 10.5 0.86084 9.82842 0.86084 9.00001C0.86084 8.1716 1.53056 7.5 2.35676 7.5H23.2995C24.1256 7.5 24.7954 8.17155 24.7954 9.00001C24.7954 9.82847 24.1256 10.5 23.2994 10.5Z" fill="black"/>
    <path d="M23.2994 3.00002H2.35676C1.53056 3.00002 0.86084 2.32847 0.86084 1.50001C0.86084 0.671548 1.53056 0 2.35676 0H23.2995C24.1256 0 24.7954 0.671548 24.7954 1.50001C24.7954 2.32847 24.1256 3.00002 23.2994 3.00002Z" fill="black"/>
    </svg>
    