<svg width="19" height="19" viewBox="0 0 19 19" fill="none" xmlns="http://www.w3.org/2000/svg">
    <path
        d="M9.5 0.0100098C7.62108 0.0100098 5.78435 0.567175 4.22209 1.61105C2.65982 2.65492 1.44218 4.13862 0.723149 5.87452C0.0041162 7.61041 -0.184015 9.52055 0.182544 11.3634C0.549104 13.2062 1.45389 14.8989 2.78249 16.2275C4.11109 17.5561 5.80383 18.4609 7.64665 18.8275C9.48946 19.194 11.3996 19.0059 13.1355 18.2869C14.8714 17.5678 16.3551 16.3502 17.399 14.7879C18.4428 13.2257 19 11.3889 19 9.51001C18.9973 6.99127 17.9956 4.57645 16.2146 2.79543C14.4336 1.01441 12.0187 0.0126696 9.5 0.0100098ZM9.5 15.3562C9.2832 15.3562 9.07127 15.2919 8.89101 15.1714C8.71075 15.051 8.57025 14.8798 8.48729 14.6795C8.40432 14.4792 8.38262 14.2588 8.42491 14.0462C8.46721 13.8335 8.5716 13.6382 8.72491 13.4849C8.8782 13.3316 9.07352 13.2272 9.28615 13.1849C9.49879 13.1426 9.71919 13.1643 9.91948 13.2473C10.1198 13.3303 10.291 13.4708 10.4114 13.651C10.5319 13.8313 10.5962 14.0432 10.5962 14.26C10.5962 14.5507 10.4807 14.8295 10.2751 15.0351C10.0695 15.2407 9.79072 15.3562 9.5 15.3562ZM10.2308 10.9058V10.9715C10.2308 11.1654 10.1538 11.3512 10.0167 11.4883C9.87969 11.6253 9.69381 11.7023 9.5 11.7023C9.30619 11.7023 9.12032 11.6253 8.98327 11.4883C8.84622 11.3512 8.76923 11.1654 8.76923 10.9715V10.2408C8.76923 10.047 8.84622 9.86109 8.98327 9.72404C9.12032 9.587 9.30619 9.51001 9.5 9.51001C10.7085 9.51001 11.6923 8.68789 11.6923 7.68309C11.6923 6.67828 10.7085 5.85616 9.5 5.85616C8.29149 5.85616 7.3077 6.67828 7.3077 7.68309V8.04847C7.3077 8.24228 7.2307 8.42816 7.09366 8.5652C6.95661 8.70225 6.77074 8.77924 6.57693 8.77924C6.38311 8.77924 6.19724 8.70225 6.06019 8.5652C5.92315 8.42816 5.84616 8.24228 5.84616 8.04847V7.68309C5.84616 5.86986 7.48491 4.39462 9.5 4.39462C11.5151 4.39462 13.1538 5.86986 13.1538 7.68309C13.1538 9.27068 11.8969 10.5998 10.2308 10.9058Z"
        fill="white" />
</svg>
    