<svg width="23" height="19" viewBox="0 0 23 19" fill="none" xmlns="http://www.w3.org/2000/svg">
    <path
        d="M6.90069 8.94118C8.12081 8.94118 9.29095 8.47017 10.1537 7.63177C11.0165 6.79337 11.5012 5.65626 11.5012 4.47059C11.5012 3.28491 11.0165 2.1478 10.1537 1.3094C9.29095 0.471007 8.12081 0 6.90069 0C5.68057 0 4.51043 0.471007 3.64767 1.3094C2.78492 2.1478 2.30023 3.28491 2.30023 4.47059C2.30023 5.65626 2.78492 6.79337 3.64767 7.63177C4.51043 8.47017 5.68057 8.94118 6.90069 8.94118ZM17.2517 8.94118C18.1668 8.94118 19.0444 8.58792 19.6915 7.95912C20.3386 7.33032 20.7021 6.47749 20.7021 5.58823C20.7021 4.69898 20.3386 3.84615 19.6915 3.21735C19.0444 2.58855 18.1668 2.23529 17.2517 2.23529C16.3366 2.23529 15.459 2.58855 14.812 3.21735C14.1649 3.84615 13.8014 4.69898 13.8014 5.58823C13.8014 6.47749 14.1649 7.33032 14.812 7.95912C15.459 8.58792 16.3366 8.94118 17.2517 8.94118ZM2.87529 11.1765C1.28813 11.1765 0 12.4282 0 13.9706C0 13.9706 0 19 6.90069 19C12.3706 19 13.5047 15.8393 13.7393 14.5294C13.8014 14.1874 13.8014 13.9706 13.8014 13.9706C13.8014 12.4282 12.5133 11.1765 10.9261 11.1765H2.87529ZM16.0924 14.7529C16.0659 15.1582 15.9966 15.5597 15.8854 15.9511C15.7405 16.4495 15.5013 17.0464 15.0987 17.6611C15.8045 17.8147 16.5262 17.889 17.2494 17.8824C23 17.8824 23 13.9706 23 13.9706C23 12.4282 21.7119 11.1765 20.1247 11.1765H15.2275C15.7796 11.9767 16.0993 12.9356 16.0993 13.9706V14.5294L16.0924 14.7529Z"
        fill="white" />
</svg>
    